<svg xmlns="http://www.w3.org/2000/svg" viewBox="0 0 41.69 36"><defs><style>.cls-1{fill:#5bd97f;}</style></defs><g id="Layer_2" data-name="Layer 2"><g id="Layer_1-2" data-name="Layer 1"><polygon class="cls-1" points="15.08 22.37 17.82 22.37 17.82 28.02 23.47 22.37 20.72 22.37 20.72 16.73 15.08 22.37"/><path class="cls-1" d="M41.69,10.48,38.48,9a7.65,7.65,0,0,0-1.11-2.68l1.25-3.29L35.33,4.32a7.65,7.65,0,0,0-2.68-1.11L31.21,0,29.76,3.21a7.65,7.65,0,0,0-2.68,1.11L23.79,3.07,28,7.33A4.53,4.53,0,1,1,34.4,13.7l4.22,4.2-1.25-3.29a7.65,7.65,0,0,0,1.11-2.68Z"/><path class="cls-1" d="M32.9,16.73l0,0,.85-.85-3.14-3.14-.85.85-1.68-1.68.85-.85L25.77,7.89l-.85.85L19.27,3.1,8.78,13.59V11.88H5.65v4.85L0,22.37H5.65V36H32.9V22.37h5.65L32.9,16.73ZM29.76,32.86h-21V18L19.27,7.54,29.76,18Z"/></g></g></svg>