<svg xmlns="http://www.w3.org/2000/svg" viewBox="0 0 201.77 72"><defs><style>.cls-1{fill:#f7f7fa;}.cls-2{fill:#5bd97f;}</style></defs><g id="Layer_2" data-name="Layer 2"><g id="Layer_1-2" data-name="Layer 1"><path class="cls-1" d="M115.81,14H108v3.4h3.2a2.38,2.38,0,0,1-.85,1.83,3.71,3.71,0,0,1-2.42.68,3.23,3.23,0,0,1-2.8-1.3,6,6,0,0,1-1-3.62,5.69,5.69,0,0,1,1-3.56A3.31,3.31,0,0,1,108,10.18a3.26,3.26,0,0,1,1.86.49,2.28,2.28,0,0,1,1,1.4h4.82a6,6,0,0,0-1.23-3.13,7.15,7.15,0,0,0-2.74-2.14,9.39,9.39,0,0,0-8.08.28,7.81,7.81,0,0,0-3.11,3.08,9.72,9.72,0,0,0-1.16,4.93,10,10,0,0,0,1.09,4.81,7.67,7.67,0,0,0,3,3.11,9.16,9.16,0,0,0,4.52,1.09,8.82,8.82,0,0,0,4.08-.91,6.71,6.71,0,0,0,2.8-2.61,7.88,7.88,0,0,0,1-4.11Z"/><path class="cls-1" d="M123.43,18.05h1.65l3.09,5.81h5.19l-3.57-6.57A5.18,5.18,0,0,0,132,15.34a5.74,5.74,0,0,0,.8-3.1A6.08,6.08,0,0,0,132,9,5.33,5.33,0,0,0,129.67,7a7.79,7.79,0,0,0-3.42-.71h-7.6v17.6h4.78Zm0-8h1.68a3.34,3.34,0,0,1,2,.52,1.9,1.9,0,0,1,.71,1.65,1.81,1.81,0,0,1-.71,1.61,3.5,3.5,0,0,1-2,.49h-1.68Z"/><polygon class="cls-1" points="148.06 20.01 140.19 20.01 140.19 16.98 147.44 16.98 147.44 13.13 140.19 13.13 140.19 10.11 148.09 10.11 148.09 6.26 135.41 6.26 135.41 23.86 148.06 23.86 148.06 20.01"/><polygon class="cls-1" points="163.72 20.01 155.85 20.01 155.85 16.98 163.1 16.98 163.1 13.13 155.85 13.13 155.85 10.11 163.75 10.11 163.75 6.26 151.07 6.26 151.07 23.86 163.72 23.86 163.72 20.01"/><polygon class="cls-1" points="171.51 14.61 171.61 14.61 177.97 23.86 181.96 23.86 181.96 6.26 177.18 6.26 177.18 15.47 177.04 15.47 170.78 6.26 166.73 6.26 166.73 23.86 171.51 23.86 171.51 14.61"/><path class="cls-1" d="M110.37,31a7.2,7.2,0,0,0-3.43-.77H99.35v17.6h4.77V42.55h2.65a7.83,7.83,0,0,0,3.52-.75,5.58,5.58,0,0,0,2.35-2.13,6.26,6.26,0,0,0,.83-3.27,6.46,6.46,0,0,0-.81-3.28A5.7,5.7,0,0,0,110.37,31Zm-2.59,7.23a2.79,2.79,0,0,1-2,.66h-1.69V34h1.69a2.83,2.83,0,0,1,2,.64,2.25,2.25,0,0,1,.71,1.77A2.32,2.32,0,0,1,107.78,38.18Z"/><path class="cls-1" d="M128.65,31A9.64,9.64,0,0,0,120,31,7.66,7.66,0,0,0,116.9,34a10,10,0,0,0-1.14,5,9.88,9.88,0,0,0,1.14,4.93A7.62,7.62,0,0,0,120,47,9,9,0,0,0,124.32,48a9.06,9.06,0,0,0,4.33-1,7.62,7.62,0,0,0,3.09-3,9.93,9.93,0,0,0,1.14-5,10,10,0,0,0-1.14-5A7.62,7.62,0,0,0,128.65,31ZM127,42.6a3.54,3.54,0,0,1-5.42,0,6,6,0,0,1-.93-3.62,6,6,0,0,1,.93-3.63,3.56,3.56,0,0,1,5.42,0A6,6,0,0,1,128,39,6,6,0,0,1,127,42.6Z"/><polygon class="cls-1" points="155.41 47.77 160.6 30.18 155.28 30.18 152.87 41.04 152.73 41.04 149.88 30.18 145.69 30.18 142.83 41 142.7 41 140.29 30.18 134.96 30.18 140.15 47.77 144.72 47.77 147.72 37.95 147.85 37.95 150.84 47.77 155.41 47.77"/><polygon class="cls-1" points="175.44 34.03 175.44 30.18 162.76 30.18 162.76 47.77 175.41 47.77 175.41 43.93 167.53 43.93 167.53 40.9 174.79 40.9 174.79 37.05 167.53 37.05 167.53 34.03 175.44 34.03"/><path class="cls-1" d="M187.94,47.78h5.19l-3.58-6.57a5.15,5.15,0,0,0,2.2-2,5.74,5.74,0,0,0,.79-3.1,6.13,6.13,0,0,0-.81-3.22,5.43,5.43,0,0,0-2.29-2,7.7,7.7,0,0,0-3.43-.71h-7.59v17.6h4.77V42h1.65ZM183.19,34h1.69a3.29,3.29,0,0,1,2,.52,1.9,1.9,0,0,1,.71,1.65,1.81,1.81,0,0,1-.71,1.61,3.52,3.52,0,0,1-2,.48h-1.69Z"/><polygon class="cls-1" points="99.35 71.76 112 71.76 112 67.91 104.12 67.91 104.12 64.89 111.38 64.89 111.38 61.03 104.12 61.03 104.12 58.01 112.03 58.01 112.03 54.16 99.35 54.16 99.35 71.76"/><polygon class="cls-1" points="125.45 63.37 125.32 63.37 119.06 54.16 115.01 54.16 115.01 71.76 119.78 71.76 119.78 62.51 119.89 62.51 126.25 71.76 130.23 71.76 130.23 54.16 125.45 54.16 125.45 63.37"/><polygon class="cls-1" points="133.11 71.76 145.75 71.76 145.75 67.91 137.88 67.91 137.88 64.89 145.14 64.89 145.14 61.03 137.88 61.03 137.88 58.01 145.79 58.01 145.79 54.16 133.11 54.16 133.11 71.76"/><path class="cls-1" d="M162.1,63.24a5.71,5.71,0,0,0,.79-3.1,6.07,6.07,0,0,0-.81-3.21,5.38,5.38,0,0,0-2.29-2.06,7.84,7.84,0,0,0-3.43-.71h-7.59v17.6h4.77V66h1.65l3.1,5.81h5.19l-3.58-6.57A5.15,5.15,0,0,0,162.1,63.24Zm-4.9-1.49a3.44,3.44,0,0,1-2,.49h-1.69V58h1.69a3.36,3.36,0,0,1,2,.51,1.92,1.92,0,0,1,.71,1.65A1.81,1.81,0,0,1,157.2,61.75Z"/><path class="cls-1" d="M174.19,65.33h3.19a2.34,2.34,0,0,1-.84,1.83,3.71,3.71,0,0,1-2.42.68,3.23,3.23,0,0,1-2.8-1.3,6,6,0,0,1-.95-3.61,5.7,5.7,0,0,1,1-3.57,3.33,3.33,0,0,1,2.79-1.28,3.26,3.26,0,0,1,1.86.49A2.23,2.23,0,0,1,177,60h4.83a6,6,0,0,0-1.23-3.13,7.15,7.15,0,0,0-2.74-2.14,9.39,9.39,0,0,0-8.08.28,7.81,7.81,0,0,0-3.11,3.08A9.72,9.72,0,0,0,165.46,63a10.08,10.08,0,0,0,1.08,4.81,7.76,7.76,0,0,0,3,3.11A9,9,0,0,0,174.08,72a8.83,8.83,0,0,0,4.09-.91,6.71,6.71,0,0,0,2.8-2.61,7.88,7.88,0,0,0,1-4.11V61.93h-7.8Z"/><polygon class="cls-1" points="196.45 54.16 193.01 61.31 192.87 61.31 189.43 54.16 184.11 54.16 190.57 66.23 190.57 71.76 195.31 71.76 195.31 66.23 201.77 54.16 196.45 54.16"/><polygon class="cls-2" points="30.06 44.59 35.53 44.59 35.53 55.85 46.78 44.59 41.31 44.59 41.31 33.34 30.06 44.59"/><path class="cls-1" d="M83.1,20.9,76.7,18a14.74,14.74,0,0,0-2.22-5.35L77,6.12l-6.56,2.5a14.58,14.58,0,0,0-5.34-2.21L62.2,0,59.33,6.41A14.51,14.51,0,0,0,54,8.62l-6.56-2.5,8.3,8.5A9,9,0,1,1,68.56,27.3L77,35.68l-2.5-6.56a14.74,14.74,0,0,0,2.22-5.35Z"/><path class="cls-1" d="M65.58,33.34l0-.05,1.7-1.7L61,25.34,59.28,27l-3.35-3.36,1.7-1.7-6.26-6.25-1.7,1.7L38.42,6.18,17.51,27.09V23.68H11.25v9.66L0,44.59H11.25V71.76H65.58V44.59H76.84L65.58,33.34ZM59.33,65.5H17.51V35.93L38.42,15,59.33,35.93Z"/></g></g></svg>